<?xml version="1.0" encoding="utf-8"?>
<!-- Generator: Adobe Illustrator 28.1.0, SVG Export Plug-In . SVG Version: 6.00 Build 0)  -->
<svg version="1.1" id="Camada_1" xmlns="http://www.w3.org/2000/svg" xmlns:xlink="http://www.w3.org/1999/xlink" x="0px" y="0px"
	 viewBox="0 0 1920 1080" style="enable-background:new 0 0 1920 1080;" xml:space="preserve">
<style type="text/css">
	.st0{fill:#2B2D2E;}
	.st1{fill:#4A4B4C;}
	.st2{fill:#161718;}
	.st3{fill:#E83C2C;}
	.st4{opacity:0.57;fill:#A4311F;}
	.st5{opacity:0.57;fill:#862617;}
	.st6{fill:#A1322F;}
	.st7{fill:#954C9D;}
</style>
<g>
	<g>
		<g>
			<path class="st0" d="M1088.07,826.19h-38.47H943.28v28.49c0,6.26,56.21,11.33,125.56,11.33c69.34,0,125.56-5.07,125.56-11.33
				v-28.49H1088.07z"/>
			<path class="st0" d="M959.03,826.19h-15.75v28.49c0,1.99,5.72,3.87,15.75,5.49V826.19z"/>
			<path class="st0" d="M1091.34,826.19v39.63c58.6-0.96,103.05-5.58,103.05-11.14v-28.49H1091.34z"/>
			<path class="st1" d="M1194.4,826.19c0,6.26-56.21,11.33-125.56,11.33c-69.34,0-125.56-5.07-125.56-11.33
				c0-6.25,56.21-11.33,125.56-11.33C1138.18,814.86,1194.4,819.93,1194.4,826.19z"/>
			<path class="st2" d="M1187.19,826.19c0,4.75-51.9,8.59-115.93,8.59s-115.93-3.85-115.93-8.59c0-4.75,51.9-8.59,115.93-8.59
				S1187.19,821.44,1187.19,826.19z"/>
		</g>
		<path class="st3" d="M1293.96,575.2V409.31V280.99c2.4-78.92-103.2-127.18-103.2-127.18l-119.49-0.33l0-0.02l-4.24,0.01
			l-4.24-0.01l0,0.02l-119.49,0.33c0,0-105.61,48.26-103.21,127.18v128.32V575.2v128.32c-2.4,78.92,103.21,127.18,103.21,127.18
			s97.72,21.9,247.47,0c0,0,105.6-48.26,103.2-127.18V575.2z"/>
		<path class="st4" d="M1293.96,575.2V409.31V280.99c2.4-78.92-103.2-127.18-103.2-127.18l-119.49-0.33l0-0.02l-4.24,0.01
			l-4.24-0.01l0,0.02l-119.49,0.33c0,0-105.61,48.26-103.21,127.18v128.32V575.2v128.32c-2.4,78.92,103.21,127.18,103.21,127.18
			s97.72,21.9,247.47,0c0,0,105.6-48.26,103.2-127.18V575.2z M1054.89,664.68c-3.6,84.75-81.9,116.02-144.01,91.52
			c-62.1-24.5-50.4-105.25-50.4-105.25s-4.5-341.87,0-389.14c4.5-47.27,73.8-82.66,73.8-82.66c21.66-13.34,86.4,0.18,102.6,20.07
			c16.2,19.89,18,79.69,18,79.69S1058.49,579.93,1054.89,664.68z"/>
		<path class="st5" d="M1293.96,280.99c2.4-78.92-103.2-127.18-103.2-127.18l-119.49-0.33l0-0.02l-4.24,0.01l-4.24-0.01l0,0.02
			l-119.49,0.33c0,0-0.2,0.09-0.54,0.25c5.93,4.48,14.31,6.31,20.84,7.59c13.18,2.58,26.7,4.16,39.98,6.06
			c21.3,3.06,42.69,5.43,64.11,7.41c17.7,1.63,35.49,2.78,53.1,5.31c16.31,2.34,33.01,6.36,46.87,16.14
			c12.47,8.8,21.68,21.57,27.06,36.25c5.6,15.24,7.26,31.66,8.23,47.85c1.34,22.42,2.3,44.85,2.92,67.3
			c1.24,45.1,1.96,180.26,2.68,202.7c0.69,21.49,1.84,42.96,2.76,64.44c1.82,42.45,2.94,85.27-2.43,127.5
			c-3.46,27.21-14.96,51.48-34.85,69.49c-11.97,10.84-25.85,18.98-40.5,25.17c18.07-1.52,37.18-3.66,57.23-6.59
			c0,0,105.6-48.26,103.2-127.18V280.99z"/>
		<g>
			<path class="st0" d="M1088.07,125.33h-38.47H943.28v28.49c0,6.26,56.21,11.33,125.56,11.33c69.34,0,125.56-5.07,125.56-11.33
				v-28.49H1088.07z"/>
			<path class="st0" d="M959.03,125.33h-15.75v28.49c0,1.99,5.72,3.87,15.75,5.49V125.33z"/>
			<path class="st0" d="M1091.34,125.33v39.63c58.6-0.96,103.05-5.58,103.05-11.14v-28.49H1091.34z"/>
			<ellipse class="st1" cx="1068.84" cy="125.33" rx="125.56" ry="11.33"/>
			<ellipse class="st2" cx="1071.26" cy="125.33" rx="115.93" ry="8.59"/>
		</g>
		<g>
			<path class="st6" d="M948.79,808.09c-18.4-1.26-34.84-2.79-49.3-4.43c2.59,1.97,5.15,3.85,7.65,5.61
				c12.42,1.3,26.14,2.52,41.16,3.55c26.89,1.84,59.96,3.2,99.01,3.2c50.89,0,111.91-2.31,182.56-8.87c2.38-1.73,4.8-3.55,7.24-5.46
				C1108.87,814.04,1011.79,812.39,948.79,808.09z"/>
			<path class="st6" d="M986.82,772.56c-58.59-2.56-101.4-7.97-129.39-12.37c1.2,1.83,2.45,3.62,3.73,5.39
				c28.11,4.28,69.66,9.3,125.47,11.73c22.23,0.97,44.95,1.46,68.15,1.46c68.71,0,141.57-4.27,217.75-12.73
				c1.25-1.7,2.46-3.42,3.63-5.18C1172.95,772.51,1075.84,776.45,986.82,772.56z"/>
			<path class="st6" d="M1002.33,735.69c-77.14-2.8-130.24-10.55-161.12-15.39c0.27,1.67,0.59,3.32,0.95,4.96
				c31.19,4.87,83.94,12.42,160.01,15.19c19.06,0.69,38.44,1.04,58.11,1.04c73.27,0,150.67-4.82,231.14-14.35
				c0.4-1.62,0.75-3.25,1.06-4.9C1190.06,734.44,1092.62,738.97,1002.33,735.69z"/>
			<path class="st6" d="M840.08,683.18v4.8c43.7,6.25,118.64,16.3,225.24,16.3c64.58,0,140.78-3.69,228.64-14.16v-4.79
				C1060.68,713.16,909.88,693.16,840.08,683.18z"/>
			<path class="st6" d="M840.08,646.35v4.8c50.33,6.77,126.94,15.9,229.63,15.9c64.49,0,139.28-3.61,224.25-13.66v-4.79
				C1073.43,674.74,921.77,657.35,840.08,646.35z"/>
			<path class="st6" d="M840.08,609.57v4.79c64.53,8.31,141.83,15.55,233.92,15.55c65.58,0,138.68-3.68,219.96-13.25v-4.79
				C1098.42,634.95,950.48,623.81,840.08,609.57z"/>
			<path class="st6" d="M840.08,572.85v2.35v2.44c61.35,7.87,139.75,15.31,234.4,15.31c65.48,0,138.75-3.57,219.48-13.02v-4.73
				v-0.06C1096.41,598.32,943.74,586.17,840.08,572.85z"/>
			<path class="st6" d="M840.08,536.11v4.79c79.43,10.05,157.92,15.09,236.41,15.09c72.24,0,144.49-4.28,217.47-12.79v-4.79
				C1141.69,556.22,992.62,555.46,840.08,536.11z"/>
			<path class="st6" d="M840.08,499.39v4.79c76.13,9.6,153.02,14.63,228.87,14.94c2.47,0.01,4.93,0.02,7.4,0.02
				c72.16,0,145.16-4.26,217.61-12.66v-4.78c-74.93,8.71-150.44,12.99-224.99,12.67C993.11,514.05,916.21,509.01,840.08,499.39z"/>
			<path class="st6" d="M840.08,462.67v4.79c78.66,9.92,158.1,14.95,236.56,14.95c2.46,0,4.93-0.01,7.39-0.02
				c69.56-0.28,140-4.54,209.93-12.65v-4.79c-69.93,8.13-140.38,12.4-209.95,12.68C1003.16,477.96,921.2,472.92,840.08,462.67z"/>
			<path class="st6" d="M840.08,425.96v4.79c79.43,10.05,157.92,15.09,236.41,15.09c72.24,0,144.49-4.28,217.47-12.79v-4.79
				C1141.69,446.08,992.62,445.31,840.08,425.96z"/>
			<path class="st6" d="M840.08,389.26v4.79c88.26,11.19,167.85,15.33,238.42,15.33c85.16,0,157.19-6.03,215.46-12.97v-4.79
				C1187.52,404.33,1034.96,414.01,840.08,389.26z"/>
			<path class="st6" d="M840.08,352.55v4.79c88.93,11.31,168.26,15.57,238.91,15.57c83.23,0,154.4-5.92,214.98-13.19v-4.79
				C1182.08,368.4,1033.9,377.24,840.08,352.55z"/>
			<path class="st6" d="M840.08,315.83v4.8c92.86,11.83,173.95,15.99,243.19,15.99c90.55,0,160.82-7.1,210.69-13.42v-4.79
				C1206.17,329.55,1054.55,343.21,840.08,315.83z"/>
			<path class="st6" d="M840.06,279.12c0.01,0.62,0,1.24,0.02,1.87v2.93c95.91,12.26,178.4,16.5,247.58,16.5
				c92.51,0,161.19-7.57,206.3-13.66v-4.8C1215.41,292.58,1064.52,307.87,840.06,279.12z"/>
			<path class="st6" d="M847.24,243.32c-0.63,1.5-1.2,3.03-1.76,4.56c86.24,10.84,169.06,16.32,247.21,16.32
				c19.67,0,39.06-0.35,58.11-1.04c60.96-2.22,106.93-7.51,138.85-12.03c-0.49-1.54-1.01-3.07-1.58-4.58
				c-31.78,4.48-77.29,9.66-137.43,11.85C1056.47,261.83,954.52,256.75,847.24,243.32z"/>
			<path class="st6" d="M1166.35,226.6c43.88-1.92,78.94-5.43,105.6-8.92c-1.1-1.47-2.22-2.93-3.38-4.36
				c-26.19,3.36-60.21,6.68-102.41,8.52c-91.3,3.99-191.1-0.26-297.28-12.61c-1.23,1.43-2.44,2.87-3.63,4.35
				c81.7,9.62,159.67,14.47,232.94,14.47C1121.39,228.06,1144.13,227.57,1166.35,226.6z"/>
			<path class="st6" d="M1204.68,188.68c12.96-0.89,24.96-1.91,35.98-3.02c-1.8-1.47-3.59-2.88-5.38-4.25
				c-9.6,0.91-19.89,1.77-30.9,2.52c-64.74,4.43-165.47,6.06-299.03-7.43c-1.87,1.34-3.76,2.74-5.67,4.2
				c80.66,8.33,149.56,11.18,205.99,11.18C1144.71,191.88,1177.79,190.52,1204.68,188.68z"/>
		</g>
	</g>
	<g>
		<path class="st3" d="M968.5,193.98c-7.84-14.13-22.79-8.11-32.92-0.7c-14.72,10.77-28.58,23.27-38.72,38.83
			c-18.65,28.66-14.25,59.86-14.65,92.68c-0.15,12.23-3.39,44.8,13.39,47.79c2.72,0.48,5.44-0.18,7.84-1.56
			c5.45-3.12,9.4-8.55,12.83-13.85c3.09-4.77,5.78-9.82,8.64-14.75c4.44-7.67,8.76-15.42,12.9-23.27
			c8.83-16.74,16.99-33.94,23.38-51.89c3.13-8.79,5.83-17.76,7.87-26.91c1.85-8.31,3.47-16.97,3.68-25.53
			C972.93,207.75,971.94,200.17,968.5,193.98z"/>
		<path class="st7" d="M903.75,364.38c0.01-0.01,0.01-0.01,0.02-0.02c0.07-0.08,0.21-0.2,0.28-0.25
			C904.12,364,903.89,364.08,903.75,364.38z"/>
	</g>
	<g>
		<path class="st7" d="M895.43,437.98c0.01,0,0.03,0,0.04,0c0.13-0.03,0.34-0.04,0.43-0.06c0,0,0,0,0,0c0,0,0.01,0,0.01-0.01
			C895.86,437.86,895.64,437.83,895.43,437.98z"/>
		<path class="st7" d="M897,437.25c0.12-0.11,0.27-0.27,0.42-0.36c0.01-0.01,0.01-0.01,0.02-0.02
			C897.04,437.05,896.92,437.26,897,437.25z"/>
		<path class="st7" d="M897.3,400.22C897.3,400.21,897.3,400.21,897.3,400.22C897.31,400.21,897.31,400.21,897.3,400.22z"/>
		<path class="st3" d="M910.31,407c-1.45-7.1-5.84-15.38-14.14-11.67c-13.37,5.97-14.03,29.96-10.78,42.03
			c1.42,5.27,4.4,10.86,9.48,12c3.82,0.86,7.83-1.18,10.39-4.28c5.68-6.9,6.3-18.36,6.18-27C911.39,414.38,911.05,410.63,910.31,407
			z"/>
		<path class="st7" d="M897.14,400.33c-0.03,0.02-0.04,0.03-0.08,0.06c-0.01,0.01-0.03,0.02-0.04,0.03
			c0.05-0.03,0.11-0.07,0.17-0.12C897.18,400.31,897.16,400.32,897.14,400.33z"/>
		<path class="st7" d="M892.67,435.02C892.75,435.18,892.82,435.34,892.67,435.02L892.67,435.02z"/>
	</g>
</g>
</svg>
